<svg xmlns="http://www.w3.org/2000/svg" width="81" height="80" fill="none"><path fill="#228ECA" fill-rule="evenodd" d="M18.893 10a4.08 4.08 0 0 0-4.08 4.08v52.184a4.08 4.08 0 0 0 4.08 4.08h29.385a4.08 4.08 0 0 0 4.08-4.08V47.858H65a1.813 1.813 0 0 0 1.813-1.813v-15.12A1.813 1.813 0 0 0 65 29.112H52.36V27.85h-.001V14.08A4.08 4.08 0 0 0 48.278 10H18.893zm33.465 19.112V27.85H42.354a2.116 2.116 0 0 0-2.116 2.116V46.65c0 1.028.733 1.884 1.704 2.076l-.179.241c-.768 1.037-1.31 1.766-2.405 2.556 1.631 0 4.65-.294 5.949-.757 1.422-.507 2.092-1.28 2.685-2h4.366v-.908h-5.034c-.406.585-.957 1.132-2.065 1.873-.915.613-2.9.747-3.754.714.38-.36 1.297-1.3 1.918-2.176.097-.137.183-.275.258-.41h-.006a1.813 1.813 0 0 1-1.814-1.814v-15.12c0-1.001.812-1.813 1.813-1.813h8.684zm-24.015-17.56a1.21 1.21 0 0 0-1.21 1.21v.395a1.21 1.21 0 0 0 1.21 1.209H38.73a1.21 1.21 0 0 0 1.209-1.209v-.396a1.21 1.21 0 0 0-1.21-1.208H28.344zm1.313 55.3c0-.59.478-1.068 1.067-1.068h5.627a1.067 1.067 0 0 1 0 2.135h-5.627c-.59 0-1.067-.478-1.067-1.067z" clip-rule="evenodd"/></svg>