<svg xmlns="http://www.w3.org/2000/svg" width="81" height="80" fill="none"><path fill="#228ECA" d="M38.622 12.8c-16.087 0-29.12 13.026-29.12 29.095A28.955 28.955 0 0 0 17.35 61.76L38.62 40.5l.001-27.699zM18.621 63.032a28.955 28.955 0 0 0 19.866 7.848c16.069 0 29.094-13.033 29.094-29.12h-27.69l-21.27 21.272zM43.262 8v29.12h29.12C72.382 21.022 59.359 8 43.262 8zm10.26 14.861a3.967 3.967 0 0 1 3.958 3.96c0 1.838-1.266 3.366-2.964 3.818v.844a.987.987 0 0 1-.985.985.987.987 0 0 1-.985-.985v-.844c-1.698-.442-2.964-1.98-2.964-3.819 0-.542.442-.985.985-.985.542 0 .985.443.985.985 0 1.086.884 1.98 1.98 1.98a1.977 1.977 0 0 0 1.979-1.98c0-1.095-.884-1.98-1.98-1.98a3.967 3.967 0 0 1-3.959-3.958c0-1.839 1.266-3.367 2.965-3.818v-.834c0-.543.442-.985.985-.985.542 0 .984.442.984.985v.844c1.699.442 2.965 1.98 2.965 3.818a.987.987 0 0 1-.985.985.987.987 0 0 1-.985-.985c0-1.085-.884-1.98-1.98-1.98a1.975 1.975 0 1 0 0 3.949z"/></svg>