<svg xmlns="http://www.w3.org/2000/svg" width="81" height="80" fill="none"><path fill="#228ECA" d="M28.068 56.031h23.526V69.9a.789.789 0 0 1-1.044.746l-10.59-3.622-10.852 3.632a.789.789 0 0 1-1.04-.749V56.031z"/><path fill="#228ECA" fill-rule="evenodd" d="M15.354 19.09a2.84 2.84 0 0 0-2.84 2.84v29.9a2.84 2.84 0 0 0 2.84 2.84h49.538a2.84 2.84 0 0 0 2.84-2.84v-29.9a2.84 2.84 0 0 0-2.84-2.84H15.354zm15.63 12.151c0 2.486-1.214 4.655-3.018 5.814l4.096 5.208a.789.789 0 0 1-.62 1.276h-12.58a.789.789 0 0 1-.62-1.276l3.97-5.048c-1.949-1.112-3.282-3.37-3.282-5.974 0-3.704 2.698-6.707 6.027-6.707s6.027 3.003 6.027 6.707z" clip-rule="evenodd"/></svg>