<svg xmlns="http://www.w3.org/2000/svg" width="81" height="80" fill="none"><path fill="#F48971" d="m42.348 39.807-4.794-4.795-1.712 1.713 4.794 4.796-4.796 4.794 1.715 1.716 4.796-4.795 1.712-1.715-1.712-1.715h-.003zm-20.925-4.795-4.797 4.795-1.712 1.714 1.712 1.715h.003l4.794 4.795 1.713-1.716-4.795-4.794 4.798-4.796-1.716-1.713z"/><path fill="#F48971" d="M70.588 12H9.997c-2.41 0-4.371 2.127-4.371 4.739v46.523c0 2.613 1.961 4.738 4.37 4.738h60.592c2.409 0 4.37-2.125 4.37-4.738V16.74c0-2.613-1.962-4.739-4.37-4.739zm0 52.214H9.997c-.238 0-.585-.37-.585-.951v-35H71.17v35c0 .536-.315.952-.584.952h.002z"/><path fill="#F48971" d="m27.645 49.094-2.011-.798 5.695-14.344 2.011.799-5.695 14.343z"/><path fill="#FFE7E2" d="M55.508 23.827h.664c1.461 0 2.649-1.127 2.649-2.515v-.631c0-1.39-1.187-2.517-2.649-2.517h-.664c-1.461 0-2.649 1.129-2.649 2.517v.63c0 1.389 1.186 2.516 2.65 2.516zm9.504 0h.664c1.461 0 2.649-1.127 2.649-2.515v-.631c0-1.39-1.187-2.517-2.65-2.517h-.663c-1.461 0-2.649 1.129-2.649 2.517v.63c0 1.389 1.188 2.516 2.65 2.516z"/></svg>