<svg xmlns="http://www.w3.org/2000/svg" width="81" height="80" fill="none"><path fill="#228ECA" d="M49.714 59.68v5.905c0 .493-.445.897-.989.897s-.99-.404-.99-.897V59.68h-2.433v5.905c0 .493-.445.897-.989.897s-.989-.404-.989-.897V59.68H37.29V72h12.315c2.048 0 3.72-1.526 3.72-3.392V59.68h-3.61zm-21.99 8.928c0 1.867 1.672 3.392 3.73 3.392h1.592V59.68h-5.321v8.928zM55.797 8.8H25.416a3.773 3.773 0 0 0-3.77 3.772v41.246c0 2.081 1.69 3.782 3.77 3.782h30.381c2.08 0 3.77-1.7 3.77-3.782l-.001-41.246A3.773 3.773 0 0 0 55.797 8.8zM33.959 51.137a1 1 0 0 1-1 1.001h-4.102a1 1 0 0 1-1-1v-3.04a1 1 0 0 1 1-1h4.102a1 1 0 0 1 1 1v3.04zm0-8.546a1 1 0 0 1-1 1h-4.102a1 1 0 0 1-1-1v-3.039a1 1 0 0 1 1-1h4.102a1 1 0 0 1 1 1v3.039zm0-8.547a1 1 0 0 1-1 1h-4.102a1 1 0 0 1-1-1v-3.039a1 1 0 0 1 1-1h4.102a1 1 0 0 1 1 1v3.039zm9.7 17.093a1 1 0 0 1-1 1h-4.103a1 1 0 0 1-1-1v-3.039a1 1 0 0 1 1-1h4.103a1 1 0 0 1 1 1v3.039zm0-8.547a1 1 0 0 1-1 1h-4.103a1 1 0 0 1-1-1v-3.038a1 1 0 0 1 1-1.001h4.103a1 1 0 0 1 1 1v3.04zm0-8.547a1 1 0 0 1-1 1h-4.103a1 1 0 0 1-1-1v-3.038a1 1 0 0 1 1-1h4.103a1 1 0 0 1 1 1v3.038zm9.698 17.093a1 1 0 0 1-1 1.001h-4.102a1 1 0 0 1-1-1v-3.04a1 1 0 0 1 1-1h4.103a1 1 0 0 1 1 1v3.04zm0-8.546a1 1 0 0 1-1 1h-4.102a1 1 0 0 1-1-1v-3.04a1 1 0 0 1 1-1h4.103a1 1 0 0 1 1 1v3.039zm0-8.547a1 1 0 0 1-1 1h-4.102a1 1 0 0 1-1-1v-3.039a1 1 0 0 1 1-1h4.103a1 1 0 0 1 1 1v3.039zm.599-8.792a1 1 0 0 1-1 1H28.257a1 1 0 0 1-1-1v-9.997a1 1 0 0 1 1-1h24.698a1 1 0 0 1 1 1v9.997z"/></svg>