<svg xmlns="http://www.w3.org/2000/svg" width="81" height="80" fill="none"><path fill="#228ECA" d="m53.474 51.79-6.494-4.845a.914.914 0 0 0-.614-.225c-.45 0-.956.288-1.315.806l-5.466 7.885c-.479.69-.172 1.503.474 1.503a.907.907 0 0 0 .258-.04l2.654-.797.04 15.923 7.316-2.208-.039-15.926 2.656-.8c.814-.245 1.054-.819.53-1.276zM38.705 31.36a1.752 1.752 0 0 1-1.688-1.269 1.731 1.731 0 0 1 1.217-2.137l14.09-3.89a1.758 1.758 0 0 1 2.162 1.205c.26.923-.285 1.88-1.219 2.137l-14.089 3.889a1.727 1.727 0 0 1-.473.065zm0 6.72c-.767 0-1.472-.491-1.688-1.241-.262-.903.284-1.84 1.217-2.091l14.09-3.805c.933-.252 1.9.275 2.162 1.178.26.903-.285 1.838-1.219 2.09l-14.089 3.805a1.78 1.78 0 0 1-.473.064zm0 6.4a1.758 1.758 0 0 1-1.688-1.297A1.774 1.774 0 0 1 38.233 41l14.09-3.974a1.754 1.754 0 0 1 2.162 1.23c.26.943-.285 1.92-1.219 2.184l-14.089 3.974a1.725 1.725 0 0 1-.473.066z"/><path fill="#228ECA" d="M57.697 14.108c-1.14.25-2.565.617-4.165 1.053v-1.108c0-2.244-1.87-4.549-4.056-4.069-5.826 1.28-19.015 5.565-25.908 7.051-2.186.472-4.056 2.32-4.056 4.565v37.856c0 2.244 1.842 4.385 4.056 4.069 1.237-.176 2.641-.464 4.164-.832v.887c0 2.244 1.842 4.385 4.056 4.069 2.585-.37 5.965-1.242 9.557-2.305l-.009-3.486c-3.446 1.017-6.794 1.955-9.548 2.6-.471.112-.877-.393-.877-.878V26.527c-.048-1.113.383-2.042 1.68-2.39a6609.326 6609.326 0 0 0 19.776-5.383l1.164-.318 4.165-1.139c.483 0 .876.394.876.88v37.856c0 .486-.411.748-.876.88a329.845 329.845 0 0 0-5.808 1.74l.008 3.337a490.954 490.954 0 0 1 5.8-1.887c2.133-.673 4.056-1.471 4.056-4.07V18.176c0-2.243-1.87-4.548-4.056-4.068z"/></svg>