<svg xmlns="http://www.w3.org/2000/svg" width="81" height="80" fill="none"><path fill="#FF9878" d="M65.557 33.063v-6.302c0-.88-.293-1.539-.805-2.052L50.616 10.566c-.586-.44-1.172-.806-2.124-.806H19.194c-1.611 0-2.857 1.319-2.857 2.931v20.372h-5.493c-1.611 0-2.93 1.392-2.93 3.078v27.114c0 1.539 1.319 2.858 2.93 2.858h5.42v6.156c0 1.612 1.319 2.93 2.857 2.93h43.36c1.685 0 3.003-1.318 3.003-2.93v-6.156h5.42c1.685 0 2.93-1.32 2.93-2.858V36.141c0-1.686-1.245-3.078-2.93-3.078h-5.347zm-43.36 35.981v-18.98h37.5v18.98h-37.5zm0-35.98V15.695h23.292V26.76c0 1.686 1.391 3.005 3.002 3.005h11.207v3.37H22.197v-.073zm43.36 11.431c-1.684 0-2.93-1.392-2.93-3.151 0-1.612 1.32-3.005 2.93-3.005 1.685 0 3.003 1.393 3.003 3.005 0 1.759-1.318 3.151-3.003 3.151zm-38.966 8.94v4.397h28.42v-4.397H26.59zm0 7.109v4.324h28.42v-4.324H26.59z"/></svg>