<svg xmlns="http://www.w3.org/2000/svg" width="81" height="80" fill="none"><path fill="#228ECA" fill-rule="evenodd" d="M24.446 9.466c-.697 0-1.262.565-1.262 1.262v12.677H36.48c.714 0 1.338.479 1.524 1.168l2.278 8.463h25.226V10.728c0-.697-.565-1.262-1.262-1.262h-39.8z" clip-rule="evenodd"/><path fill="#228ECA" fill-rule="evenodd" d="M11.386 26.7a3.155 3.155 0 0 0-3.156 3.155V68.37a2.683 2.683 0 0 0 2.683 2.682h57.742a2.682 2.682 0 0 0 2.682-2.682V38.394c0-1.48-1.2-2.681-2.682-2.681H38.683l-2.247-7.869a1.578 1.578 0 0 0-1.517-1.144H11.386z" clip-rule="evenodd"/></svg>