<svg xmlns="http://www.w3.org/2000/svg" width="81" height="80" fill="none"><path fill="#F48971" d="M31.189 71.475c-4.957-2.192-7.07-4.893-7.508-7.165-.27-1.407.07-2.673.783-3.63a4.442 4.442 0 0 1 3.036-1.745c1.365-.164 2.895.267 4.223 1.523 1.328-1.256 2.859-1.687 4.223-1.523a4.442 4.442 0 0 1 3.037 1.745c.715.96 1.054 2.225.783 3.629-.44 2.273-2.55 4.974-7.508 7.166-.355.156-.74.144-1.07 0zm-4.9-7.666c.281 1.457 1.804 3.276 5.434 4.982 3.631-1.706 5.155-3.525 5.437-4.982.119-.62-.012-1.152-.295-1.532a1.795 1.795 0 0 0-1.231-.693c-.866-.104-1.921.356-2.797 1.654a1.324 1.324 0 0 1-2.215.019c-.88-1.312-1.94-1.776-2.811-1.672a1.79 1.79 0 0 0-1.229.691c-.285.381-.414.914-.295 1.534h.001zm40.494-19.735-11.717-6.792a1.345 1.345 0 0 0-.672-.184 1.32 1.32 0 0 0-.661.184 1.38 1.38 0 0 0-.512.51 1.381 1.381 0 0 0-.153.648v13.582c0 .258.058.487.164.673.113.192.283.36.5.487.211.122.438.184.664.184.225 0 .453-.062.665-.184 3.955-2.125 7.84-4.628 11.777-6.823.19-.12.34-.277.456-.477.103-.2.153-.413.153-.65a1.36 1.36 0 0 0-.164-.673 1.355 1.355 0 0 0-.5-.486zm-4.53-5.7 5.859 3.396a4.018 4.018 0 0 1 1.464 1.454 4.04 4.04 0 0 1 .53 2.008 4.01 4.01 0 0 1-.481 1.911l-.05.094a3.979 3.979 0 0 1-1.38 1.402c-3.795 2.399-8.014 4.446-11.804 6.845a3.963 3.963 0 0 1-1.995.551c-.68 0-1.362-.184-1.993-.55a3.984 3.984 0 0 1-1.465-1.457 4.038 4.038 0 0 1-.529-2.006V38.44c0-.683.169-1.333.48-1.91l.05-.096a3.991 3.991 0 0 1 1.464-1.457 3.97 3.97 0 0 1 1.991-.55 3.97 3.97 0 0 1 1.991.55l5.867 3.396zM16.86 26.167c-.734 0-1.33-.598-1.33-1.334 0-.737.596-1.336 1.33-1.336h2.796l.99-5.056H16.86c-.734 0-1.33-.597-1.33-1.334 0-.737.596-1.334 1.33-1.334h4.309l.768-3.93a1.33 1.33 0 0 1 1.558-1.053c.72.141 1.19.842 1.048 1.564l-.668 3.419h6.913l.77-3.929a1.33 1.33 0 0 1 1.558-1.054c.72.141 1.19.842 1.05 1.564l-.67 3.419h2.275c.733 0 1.329.597 1.329 1.334 0 .737-.596 1.334-1.33 1.334h-2.797l-.989 5.056h3.787c.733 0 1.329.599 1.329 1.336 0 .736-.596 1.334-1.33 1.334h-4.308l-.77 3.93a1.329 1.329 0 0 1-1.558 1.052 1.335 1.335 0 0 1-1.049-1.564l.67-3.418H21.84l-.768 3.93a1.33 1.33 0 0 1-1.558 1.052 1.334 1.334 0 0 1-1.049-1.564l.669-3.418H16.86zm5.503-2.67h6.914l.989-5.056h-6.914l-.989 5.056zm25.412 37.79h14.012c.5 0 .984.09 1.44.267.458.178.874.44 1.243.778l7.568 6.916.079-4.034a3.997 3.997 0 0 1 3.98-3.927h3.2c.364 0 .698-.152.964-.418.236-.258.364-.572.364-.914V30.509a1.326 1.326 0 0 0-1.328-1.332h-39.52a1.327 1.327 0 0 0-1.327 1.332V52.49h6.25c.84 0 1.61.348 2.166.907a3.08 3.08 0 0 1 .908 2.18v5.71zm-3.074-6.127H18.75a.416.416 0 0 0-.415.417v19.335a.42.42 0 0 0 .415.418h2.101a3.086 3.086 0 0 1 3.07 3.024L23.95 80l4.229-3.865a3.079 3.079 0 0 1 2.069-.805h14.454a.422.422 0 0 0 .414-.418V55.577a.415.415 0 0 0-.414-.417v.001zm1.301-28.651V7.167c0-.296-.112-.57-.319-.8A1.18 1.18 0 0 0 44.842 6H7.788a1.169 1.169 0 0 0-1.162 1.167v27.608a1.165 1.165 0 0 0 1.162 1.167h3c1.034 0 1.983.42 2.673 1.101a3.823 3.823 0 0 1 1.14 2.64l.072 3.623 6.961-6.364a3.86 3.86 0 0 1 1.193-.743 3.77 3.77 0 0 1 1.379-.257h11.586V30.51c0-1.1.45-2.105 1.17-2.827a3.991 3.991 0 0 1 2.816-1.174h6.225z"/></svg>