<svg xmlns="http://www.w3.org/2000/svg" width="81" height="80" fill="none"><path fill="#FF9878" fill-rule="evenodd" d="M53.781 10.264c-1.623.001-3.229.34-4.714.995a14.645 14.645 0 0 0-19.853 0 11.717 11.717 0 0 0-4.715-.995 11.714 11.714 0 0 0-9.587 5.03 11.703 11.703 0 0 0 6.66 18.004v6.234l2.297.004c-.405-.001-.795-.004 3.116-.004H56.71v-6.234a11.703 11.703 0 0 0 6.66-18.004 11.714 11.714 0 0 0-9.588-5.03zM17.301 44.05a2.291 2.291 0 0 1 2.29-2.291h39.145a2.291 2.291 0 0 1 2.291 2.291v22.957a2.291 2.291 0 0 1-2.291 2.291H47.363v-4.204h9.039v-19.76H21.925v19.76H32.74V69.3H19.592a2.291 2.291 0 0 1-2.292-2.291V44.05zm32.687 20.834h-4.267v13.257H34.266V64.885h-4.268a.327.327 0 0 1-.198-.588l9.896-7.533a.491.491 0 0 1 .595 0l9.897 7.533a.328.328 0 0 1-.199.588zm-22.27-15.221c-.904 0-1.637.732-1.637 1.636v.982c0 .904.733 1.637 1.637 1.637H53.74c.904 0 1.637-.733 1.637-1.637V51.3c0-.904-.733-1.636-1.637-1.636H27.718z" clip-rule="evenodd"/></svg>