<svg xmlns="http://www.w3.org/2000/svg" width="81" height="80" fill="none"><path fill="#FF9878" fill-rule="evenodd" d="M40.76 4.907 53.794 19.57h-4.557v5.724a8.153 8.153 0 0 1 5.416-2.048h5.803v-2.057c0-.141.166-.216.272-.122l8.334 7.42a.164.164 0 0 1 0 .244l-5.886 5.24h1.112-1.112l-2.448 2.18a.164.164 0 0 1-.272-.122V33.97H57.42a8.184 8.184 0 0 0-8.184 8.183v2.37V33.97v9.688H33.283v.88h34.082a3.11 3.11 0 0 1 3.11 3.11v21.588a3.11 3.11 0 0 1-3.11 3.11h-53.14a3.11 3.11 0 0 1-3.11-3.11V47.649a3.11 3.11 0 0 1 3.11-3.11h4.743v-9.78h.958l-5.49-4.848a.164.164 0 0 1 0-.245l7.936-7.008a.164.164 0 0 1 .272.122v1.934h5.074c1.69 0 3.26.513 4.565 1.391v-6.536h-4.558L40.76 4.907zm-8.477 34.111a8.191 8.191 0 0 0-5.883-4.156h-3.756v1.934a.164.164 0 0 1-.272.123l-2.446-2.16h-.958v9.78h14.315v-.88h-1v-4.64zm16.954 5.505h15.05V33.971v10.553h-15.05zm17.348 11.975v-8.5H15.15v8.5h8.356v4.034H15.15v8.501h51.435v-8.5H58.23v-4.035h8.356zM45.473 63.94h-7.12c.449-.981.672-1.962.672-2.944 0-.535-.044-1.115-.09-1.695h3.538a.896.896 0 0 0 .895-.892.896.896 0 0 0-.895-.892h-3.717a68.29 68.29 0 0 1-.134-1.338c-.134-2.185 1.433-3.166 2.776-3.3.761-.09 1.522.089 2.06.49.627.447.985 1.16 1.075 2.097.044.49.447.847.94.802.493-.044.85-.49.806-.937-.134-1.427-.761-2.586-1.791-3.345a4.535 4.535 0 0 0-2.866-.847c-.134 0-.268 0-.403.044-2.283.268-4.522 2.097-4.343 5.13.021.21.032.41.043.6.012.213.023.415.047.604h-.94a.896.896 0 0 0-.896.892c0 .49.403.892.895.892H37.1c.017.237.04.468.063.69.037.363.071.7.071 1.005 0 1.07-.179 2.006-1.074 3.345a.859.859 0 0 0 .224 1.204c.134.09.313.134.492.134h8.508c.224 0 .447-.09.626-.268a.879.879 0 0 0 .269-.624c.09-.445-.313-.802-.806-.847z" clip-rule="evenodd"/></svg>